<?xml version="1.0" encoding="utf-8"?>
<!-- Generator: Adobe Illustrator 11.0, SVG Export Plug-In  -->
<!DOCTYPE svg PUBLIC "-//W3C//DTD SVG 1.0//EN"    "http://www.w3.org/TR/2001/REC-SVG-20010904/DTD/svg10.dtd" [
	<!ENTITY ns_flows "http://ns.adobe.com/Flows/1.0/">
	<!ENTITY ns_svg "http://www.w3.org/2000/svg">
	<!ENTITY ns_xlink "http://www.w3.org/1999/xlink">
]>
<svg  xmlns="&ns_svg;" xmlns:xlink="&ns_xlink;" xmlns:a="http://ns.adobe.com/AdobeSVGViewerExtensions/3.0/"
	 width="382" height="391" viewBox="-0.034 -0.26 382 391" xml:space="preserve">
	<defs>
	</defs>
	<g>
		<path fill-rule="evenodd" clip-rule="evenodd" fill="#0D1B34" d="M54.429,27.85C54.851,28.271,116.455,0,116.455,0
			s2.108,24.895,4.218,34.6c0.8,3.666,10.003,43.318,21.686,66.586c19.269,38.388,44.559,66.323,44.559,66.323
			s34.177-34.177,50.208-63.291c16.034-29.113,24.473-46.412,26.162-68.353c1.686-21.939,1.264-32.91,1.264-32.91l64.556,33.333
			c0,0-5.905,20.253-13.923,33.333c-8.017,13.08-33.332,56.117-54.008,75.526c-20.254,21.94-52.74,43.881-52.74,43.881v43.457
			l45.568,23.208c0,0-2.953-53.588,17.72-90.293c23.206-53.585,83.12-87.34,83.12-87.34l27.006,41.349
			c0,0-66.666,23.207-78.059,104.637c-3.622,44.378,22.784,94.094,22.784,94.094l-38.396,33.333c0,0-18.987-22.364-33.754-32.913
			c-14.768-10.547-42.615-31.223-42.615-31.223l-0.423,46.412c0,0,2.11,17.724,7.595,28.271
			c8.439,18.567,23.207,27.847,23.207,27.847H126.158c0,0,14.768-7.171,24.895-31.22c5.485-18.146,4.641-24.053,4.641-24.053
			v-79.325l-63.711-46.832c0,0,2.953,35.021-1.266,60.758c-3.377,51.475-18.145,72.15-18.145,72.15l-61.179-36.709
			c0,0,38.817-37.129,33.332-105.483C47.257,159.492,0,104.218,0,104.218l42.615-38.395c0,0,30.802,50.209,44.302,64.555
			c21.098,28.27,57.384,56.96,57.384,56.96s-33.755-38.817-44.304-58.226C89.451,109.704,58.65,53.587,54.429,27.85L54.429,27.85z"
			/>
	</g>
</svg>
