<?xml version="1.0" encoding="UTF-8" standalone="no"?>
<!-- Created with Inkscape (http://www.inkscape.org/) -->

<svg
   xmlns:dc="http://purl.org/dc/elements/1.1/"
   xmlns:cc="http://creativecommons.org/ns#"
   xmlns:rdf="http://www.w3.org/1999/02/22-rdf-syntax-ns#"
   xmlns:svg="http://www.w3.org/2000/svg"
   xmlns="http://www.w3.org/2000/svg"
   xmlns:sodipodi="http://sodipodi.sourceforge.net/DTD/sodipodi-0.dtd"
   xmlns:inkscape="http://www.inkscape.org/namespaces/inkscape"
   width="136.78958mm"
   height="50.799999mm"
   viewBox="0 0 136.78958 50.799999"
   version="1.1"
   id="svg8"
   inkscape:version="0.92.5 (2060ec1f9f, 2020-04-08)"
   sodipodi:docname="sd padres.svg">
  <defs
     id="defs2">
    <clipPath
       id="clipPath26"
       clipPathUnits="userSpaceOnUse">
      <path
         inkscape:connector-curvature="0"
         id="path24"
         d="M 0,800 H 1280 V 0 H 0 Z" />
    </clipPath>
  </defs>
  <sodipodi:namedview
     id="base"
     pagecolor="#ffffff"
     bordercolor="#666666"
     borderopacity="1.0"
     inkscape:pageopacity="0.0"
     inkscape:pageshadow="2"
     inkscape:zoom="0.49497475"
     inkscape:cx="263.22433"
     inkscape:cy="-234.79605"
     inkscape:document-units="mm"
     inkscape:current-layer="layer1"
     showgrid="false"
     fit-margin-top="0"
     fit-margin-left="0"
     fit-margin-right="0"
     fit-margin-bottom="0"
     inkscape:window-width="1920"
     inkscape:window-height="1009"
     inkscape:window-x="1912"
     inkscape:window-y="70"
     inkscape:window-maximized="1" />
  <metadata
     id="metadata5">
    <rdf:RDF>
      <cc:Work
         rdf:about="">
        <dc:format>image/svg+xml</dc:format>
        <dc:type
           rdf:resource="http://purl.org/dc/dcmitype/StillImage" />
        <dc:title></dc:title>
      </cc:Work>
    </rdf:RDF>
  </metadata>
  <g
     inkscape:label="Layer 1"
     inkscape:groupmode="layer"
     id="layer1"
     transform="translate(254.80507,139.85017)">
    <g
       transform="matrix(0.1130624,0,0,-0.1125366,-258.77024,-69.435535)"
       inkscape:label="san-diego-padres-seeklogo.com"
       id="g18">
      <g
         id="g20">
        <g
           clip-path="url(#clipPath26)"
           id="g22">
          <g
             transform="translate(532.2676,570.4219)"
             id="g28">
            <path
               inkscape:connector-curvature="0"
               id="path30"
               style="fill:#3e3430;fill-opacity:1;fill-rule:nonzero;stroke:none"
               d="m 0,0 c 0.062,-83.264 0,-166.544 0.031,-249.809 10.051,0.419 20.134,0.714 30.169,1.521 12.611,1.241 23.066,13.153 22.569,25.842 0,63.627 -0.031,127.254 0,190.896 -0.108,6.034 0.667,12.316 -1.66,18.071 C 47.666,-4.405 38.188,1.923 28.447,1.458 18.955,1.117 9.462,0.698 0,0 m -62.96,38.282 c 33.008,3.04 66.108,5.01 99.241,6.266 17.357,0.807 34.838,-5.785 47.402,-17.776 13.401,-12.517 21.266,-30.712 21.142,-49.077 -0.062,-67.21 0.062,-134.436 -0.062,-201.662 -0.574,-34.761 -31.116,-64.961 -65.52,-66.806 -34.109,-1.381 -68.172,-3.552 -102.188,-6.283 9.741,18.04 11.665,38.934 10.998,59.082 0,76.549 0.015,153.081 0,229.629 0.062,16.101 -2.901,32.527 -11.013,46.627" />
          </g>
          <g
             transform="translate(744.9268,570.6392)"
             id="g32">
            <path
               inkscape:connector-curvature="0"
               id="path34"
               style="fill:#3e3430;fill-opacity:1;fill-rule:nonzero;stroke:none"
               d="m 0,0 c -0.171,-43.416 0.14,-86.848 -0.155,-130.263 7.383,-0.962 14.828,-1.07 22.243,-1.66 5.879,-0.372 12.145,-0.962 17.59,1.799 7.941,3.568 13.091,12.052 12.982,20.707 0.093,26.928 0.047,53.871 0.016,80.799 0.263,13.386 -10.858,25.872 -24.26,26.881 C 18.954,-1.008 9.477,-0.527 0,0 m -63.007,45.246 c 34.187,-0.931 68.358,-2.311 102.451,-5.057 35.335,-4.017 64.248,-36.746 65.055,-72.096 0.14,-27.377 0.046,-54.754 0.031,-82.132 0.031,-17.232 -7.244,-34.543 -20.382,-45.866 9.337,-12.906 16.256,-28.029 16.721,-44.192 0.264,-16.504 0.031,-33.024 0.109,-49.543 -0.032,-16.581 3.133,-33.396 10.935,-48.162 -17.946,1.396 -35.831,3.49 -53.746,5.119 -5.802,8.561 -9.198,18.768 -9.152,29.145 -0.046,22.197 0.062,44.409 -0.031,66.606 0.046,12.92 -10.764,24.833 -23.639,26.012 -8.376,0.791 -16.799,0.962 -25.175,1.675 -0.465,-24.182 -0.093,-48.395 -0.201,-72.592 -0.093,-16.396 3.366,-32.853 10.904,-47.481 -24.663,1.35 -49.326,2.514 -74.004,2.932 7.725,14.053 11.028,30.154 11.013,46.099 0.047,79.635 0,159.286 0.031,238.92 0.419,17.435 -2.776,35.086 -10.92,50.613" />
          </g>
          <g
             transform="translate(897.3086,599.0244)"
             id="g36">
            <path
               inkscape:connector-curvature="0"
               id="path38"
               style="fill:#3e3430;fill-opacity:1;fill-rule:nonzero;stroke:none"
               d="m 0,0 c 44.455,-5.987 88.662,-13.712 132.668,-22.414 3.241,-18.287 6.033,-36.652 8.64,-55.033 -11.122,9.182 -24.477,15.666 -38.686,18.303 -13.401,2.435 -26.757,5.103 -40.251,7.011 0.093,-34.606 -0.016,-69.196 0.062,-103.786 21.467,-3.971 44.114,-8.67 65.426,-1.241 -0.062,-21.39 0.062,-42.779 -0.062,-64.169 -8.547,5.848 -17.512,11.229 -27.377,14.564 -12.13,4.592 -25.098,5.848 -37.724,8.439 -0.698,-34.59 -0.061,-69.211 -0.309,-103.802 12.811,-2.357 25.686,-4.467 38.483,-6.948 13.433,-2.808 27.609,-2.436 40.546,2.404 -2.745,-17.062 -5.708,-34.094 -8.438,-51.156 -44.021,8.825 -88.259,16.752 -132.807,22.351 7.058,13.62 10.718,28.835 10.641,44.176 0.061,81.17 0.046,162.325 0.015,243.48 C 10.858,-31.317 7.229,-14.859 0,0" />
          </g>
          <g
             transform="translate(330.3887,548.6753)"
             id="g40">
            <path
               inkscape:connector-curvature="0"
               id="path42"
               style="fill:#3e3430;fill-opacity:1;fill-rule:nonzero;stroke:none"
               d="m 0,0 c -13.371,-3.041 -23.468,-16.318 -22.925,-30.03 0,-39.057 0.015,-78.115 0,-117.187 19.28,2.885 38.452,6.39 57.779,8.919 0.279,38.142 -0.016,76.299 0.14,114.442 -0.032,4.606 0.077,9.43 -1.909,13.696 C 30.076,-2.994 22.615,1.985 14.86,2.001 9.85,1.939 4.886,1.008 0,0 m 16.597,45.354 c 15.372,2.792 31.953,0.078 44.859,-8.949 16.1,-10.858 25.345,-30.232 25.252,-49.466 0.062,-73.911 -0.016,-147.837 0.046,-221.748 0.047,-15.512 3.164,-31.225 10.936,-44.766 -24.632,-2.668 -49.202,-5.879 -73.694,-9.554 7.182,14.41 10.78,30.448 10.935,46.518 0.093,20.599 -0.015,41.197 0.047,61.781 -19.327,-2.544 -38.545,-5.878 -57.795,-8.997 -0.171,-20.645 -0.124,-41.306 -0.046,-61.967 0.077,-15.031 3.521,-30.014 10.718,-43.261 -24.415,-3.521 -48.535,-8.857 -72.794,-13.262 7.026,15.186 10.687,31.845 10.625,48.581 0.031,72.918 0.031,145.837 0,218.755 -0.543,32.372 20.211,63.441 49.341,76.967 12.998,6.235 27.625,6.763 41.57,9.368" />
          </g>
          <g
             transform="translate(111.2925,512.6113)"
             id="g44">
            <path
               inkscape:connector-curvature="0"
               id="path46"
               style="fill:#3e3430;fill-opacity:1;fill-rule:nonzero;stroke:none"
               d="m 0,0 c 0.109,-47.666 0.078,-95.347 0,-143.014 9.09,2.064 18.024,4.778 27.021,7.213 11.121,2.994 19.978,12.27 23.313,23.174 1.536,5.305 1.21,10.889 1.226,16.349 -0.062,28.401 0.03,56.818 -0.032,85.234 0.124,6.562 -2.652,13.51 -8.469,16.969 C 37.925,9.214 31.441,9.043 25.795,7.306 17.202,4.871 8.516,2.715 0,0 m 36.622,52.924 c 13.154,3.335 27.688,2.42 39.693,-4.218 17.032,-8.997 26.4,-28.51 26.199,-47.356 0.047,-29.999 -0.015,-59.982 0.031,-89.981 0.915,-37.227 -25.221,-72.205 -59.501,-85.281 -14.147,-4.746 -28.851,-7.647 -43.044,-12.284 0.14,-24.323 -0.016,-48.644 0.078,-72.965 0.077,-14.985 2.854,-30.294 10.687,-43.276 -24.027,-6.655 -47.93,-13.744 -71.662,-21.407 6.84,15.977 10.672,33.21 10.532,50.614 0.047,84.334 0.031,168.653 0.016,252.973 0.062,15.48 -2.342,31.456 -10.641,44.812 32.294,10.268 64.837,19.761 97.612,28.369" />
          </g>
          <g
             transform="translate(1098.6602,557.7959)"
             id="g48">
            <path
               inkscape:connector-curvature="0"
               id="path50"
               style="fill:#3e3430;fill-opacity:1;fill-rule:nonzero;stroke:none"
               d="m 0,0 c 9.834,7.849 23.422,9.462 35.396,6.53 10.61,-2.745 21.173,-5.677 31.721,-8.655 10.734,-3.165 22.057,-5.383 31.519,-11.711 21.312,-13.727 36.032,-38.421 35.427,-64.061 -0.031,-13.65 0.016,-27.3 -0.031,-40.935 -17.403,5.243 -34.729,10.719 -52.164,15.868 6.856,10.579 7.259,23.671 7.445,35.862 0.264,7.461 -3.722,14.705 -9.849,18.862 -6.143,3.707 -13.48,4.467 -20.18,6.716 -5.723,1.365 -12.037,4.607 -17.714,1.459 -4.777,-2.42 -6.081,-8.144 -5.833,-13.077 0.078,-28.385 -0.077,-56.771 0.078,-85.141 -0.31,-4.901 3.289,-9.322 8.02,-10.361 16.022,-4.39 32.03,-8.857 47.976,-13.542 26.245,-6.654 45.975,-32.992 45.168,-60.012 -0.046,-29.472 -0.031,-58.928 -0.015,-88.399 0.155,-9.57 0.14,-19.637 -4.437,-28.34 -4.498,-9.228 -13.417,-16.069 -23.483,-18.07 -8.811,-2.032 -17.946,-0.512 -26.462,2.079 -13.883,4.079 -27.843,7.91 -41.803,11.696 -30.526,7.864 -54.274,38.126 -52.925,69.909 0.032,13.649 0.016,27.284 0.016,40.933 17.73,-3.939 35.257,-8.655 52.847,-13.169 -7.042,-10.377 -7.337,-23.453 -7.632,-35.536 -0.372,-6.188 2.249,-12.315 6.717,-16.581 6.049,-5.957 15.077,-6.345 22.723,-8.981 5.864,-1.334 12.177,-4.746 18.118,-1.939 4.436,2.125 6.235,7.29 6.003,11.944 -0.016,28.463 0.062,56.941 -0.032,85.404 0.14,4.468 -2.869,8.842 -7.181,10.083 -16.939,4.994 -34.016,9.523 -51.079,14.068 -24.864,6.127 -44.253,30.557 -43.508,56.322 0.061,32.651 -0.078,65.302 0.077,97.953 C -15.015,-20.428 -10.021,-7.663 0,0" />
          </g>
          <g
             transform="translate(969.1719,535.7075)"
             id="g52" />
          <g
             transform="translate(969.1719,304.8691)"
             id="g56" />
          <g
             transform="translate(681.9199,615.8853)"
             id="g60">
            <path
               inkscape:connector-curvature="0"
               id="path62"
               style="fill:#fec324;fill-opacity:1;fill-rule:nonzero;stroke:none"
               d="m 0,0 c 8.144,-15.527 11.339,-33.178 10.92,-50.613 -0.031,-79.635 0.016,-159.285 -0.031,-238.92 0.015,-15.945 -3.288,-32.046 -11.013,-46.099 24.678,-0.418 49.341,-1.582 74.004,-2.932 -7.538,14.628 -10.997,31.085 -10.904,47.481 0.108,24.197 -0.264,48.41 0.201,72.592 8.376,-0.714 16.799,-0.884 25.175,-1.676 12.875,-1.178 23.685,-13.091 23.639,-26.011 0.093,-22.197 -0.015,-44.409 0.03,-66.606 -0.045,-10.377 3.351,-20.584 9.153,-29.145 17.915,-1.629 35.8,-3.723 53.746,-5.119 -7.802,14.766 -10.967,31.581 -10.936,48.162 -0.077,16.519 0.156,33.039 -0.108,49.543 -0.465,16.163 -7.384,31.286 -16.721,44.192 13.138,11.323 20.412,28.633 20.382,45.866 0.015,27.378 0.109,54.755 -0.031,82.132 -0.807,35.35 -29.72,68.079 -65.055,72.096 C 68.357,-2.311 34.187,-0.931 0,0 M -15.837,9.819 C 10.889,9.446 37.614,8.531 64.31,7.089 c 2.838,-0.155 5.692,-0.311 8.562,-0.497 15.48,-1.458 31.519,-0.496 46.347,-5.894 25.672,-8.872 45.991,-30.774 54.15,-56.538 2.823,-8.857 3.878,-18.195 3.816,-27.471 -0.016,-24.771 0,-49.558 0,-74.345 0.015,-8.795 -1.071,-17.636 -3.847,-25.997 -3.056,-8.733 -7.988,-16.643 -13.867,-23.717 7.445,-11.85 12.362,-25.236 13.898,-39.181 0.527,-15.899 0.062,-31.845 0.217,-47.775 -0.279,-16.162 0.683,-33.132 8.004,-47.837 1.442,-5.785 4.436,-10.997 7.181,-16.24 -2.357,0.249 -4.7,0.482 -7.042,0.73 -2.807,0.31 -5.599,0.62 -8.375,0.93 -17.482,2.048 -35.009,3.615 -52.538,5.134 -3.831,-0.154 -6.095,3.227 -8.173,5.895 -6.702,8.95 -10.331,20.118 -10.129,31.317 -0.032,22.212 0.047,44.424 0,66.621 0.201,5.444 -1.676,11.074 -6.096,14.487 -6.562,5.398 -15.697,3.661 -23.546,4.498 0.046,-22.335 -0.031,-44.672 0.03,-66.993 0.234,-18.969 7.166,-37.165 16.598,-53.389 -5.538,0.31 -11.091,0.651 -16.628,0.993 -2.839,0.17 -5.662,0.356 -8.485,0.496 -26.695,1.489 -53.436,2.389 -80.178,2.745 11.06,17.389 17.59,37.785 17.109,58.493 -0.031,79.635 0.016,159.254 -0.015,238.888 0.124,20.305 -6.314,40.299 -17.14,57.377" />
          </g>
          <g
             transform="translate(469.3071,608.7036)"
             id="g64">
            <path
               inkscape:connector-curvature="0"
               id="path66"
               style="fill:#fec324;fill-opacity:1;fill-rule:nonzero;stroke:none"
               d="m 0,0 c 8.113,-14.1 11.075,-30.526 11.013,-46.627 0.016,-76.548 0,-153.08 0,-229.628 0.667,-20.149 -1.256,-41.042 -10.997,-59.082 34.016,2.73 68.079,4.901 102.188,6.282 34.403,1.846 64.945,32.046 65.519,66.806 0.124,67.226 0,134.452 0.062,201.662 0.124,18.365 -7.74,36.56 -21.141,49.078 C 134.079,0.481 116.598,7.073 99.241,6.267 66.109,5.01 33.008,3.04 0,0 m 66.714,14.395 c 12.409,0.511 24.803,1.411 37.227,1.488 26.043,-0.232 50.784,-15.775 63.441,-38.343 3.645,-6.329 5.941,-13.293 8.329,-20.149 2.312,-12.611 1.582,-25.454 1.675,-38.204 v -156.509 c -0.124,-13.696 0.714,-27.516 -1.737,-41.089 -2.559,-6.67 -4.839,-13.51 -8.36,-19.777 -12.797,-22.119 -36.328,-37.6 -61.781,-40.189 -12.906,-1.118 -25.889,-1.164 -38.809,-2.001 -2.746,-0.156 -5.491,-0.311 -8.221,-0.481 -24.741,-1.257 -49.404,-3.584 -74.082,-5.538 10.718,17.807 17.264,38.375 17.031,59.284 -0.031,80.147 0.031,160.309 -0.031,240.455 0.171,19.575 -6.359,38.654 -16.922,54.988 24.647,2.093 49.294,4.234 73.988,5.568 2.746,0.171 5.491,0.341 8.252,0.497" />
          </g>
          <g
             transform="translate(897.3086,599.0244)"
             id="g68">
            <path
               inkscape:connector-curvature="0"
               id="path70"
               style="fill:#fec324;fill-opacity:1;fill-rule:nonzero;stroke:none"
               d="m 0,0 c 7.229,-14.859 10.858,-31.317 10.827,-47.821 0.031,-81.155 0.046,-162.31 -0.015,-243.48 0.077,-15.341 -3.583,-30.556 -10.641,-44.176 44.548,-5.599 88.786,-13.526 132.807,-22.351 2.73,17.062 5.693,34.094 8.438,51.156 -12.937,-4.84 -27.113,-5.212 -40.546,-2.404 -12.797,2.481 -25.672,4.591 -38.483,6.948 0.248,34.591 -0.389,69.212 0.309,103.802 12.626,-2.591 25.594,-3.847 37.724,-8.439 9.865,-3.335 18.83,-8.716 27.377,-14.564 0.124,21.39 0,42.779 0.062,64.169 -21.312,-7.429 -43.959,-2.73 -65.426,1.241 -0.078,34.59 0.031,69.18 -0.062,103.786 13.494,-1.908 26.85,-4.576 40.251,-7.011 14.209,-2.637 27.564,-9.121 38.686,-18.303 -2.607,18.381 -5.399,36.746 -8.64,55.033 C 88.662,-13.712 44.455,-5.987 0,0 M -15.635,11.463 C 12.238,8.144 39.988,3.878 67.66,-0.76 c 2.544,-0.434 5.15,-0.868 7.725,-1.318 21.948,-3.956 43.912,-7.911 65.675,-12.751 4.002,-26.927 8.437,-53.777 12.362,-80.689 -10.672,8.686 -22.352,16.225 -35.025,21.638 -13.603,5.941 -28.556,7.244 -42.981,10.005 -1.194,0.186 -2.373,0.372 -3.553,0.558 0.124,-28.215 0,-56.43 0.078,-84.629 0.853,-0.155 2.59,-0.465 3.459,-0.62 20.538,-4.545 42.346,-3.226 61.766,5.087 0.171,-31.736 0.108,-63.487 0.047,-95.223 -7.182,5.041 -13.945,10.733 -21.732,14.859 -12.362,7.12 -26.105,11.541 -40.173,13.635 -0.823,0.171 -2.436,0.512 -3.243,0.683 -0.372,-28.215 0.016,-56.414 -0.202,-84.63 0.885,-0.17 2.638,-0.512 3.522,-0.682 15.681,-2.514 31.317,-7.104 47.355,-5.693 10.501,0.543 20.614,3.568 30.666,6.39 -4.11,-24.957 -8.344,-49.915 -12.362,-74.903 -21.856,4.266 -43.68,8.779 -65.644,12.471 -2.59,0.45 -5.165,0.869 -7.724,1.303 -27.672,4.886 -55.499,8.764 -83.326,12.471 12.718,18.055 18.054,40.406 17,62.309 -0.032,72.422 0,144.843 -0.016,217.265 -0.031,11.432 0.435,22.973 -1.722,34.265 -2.466,14.301 -8.065,27.858 -15.247,40.422" />
          </g>
          <g
             transform="translate(346.9858,594.0298)"
             id="g72">
            <path
               inkscape:connector-curvature="0"
               id="path74"
               style="fill:#fec324;fill-opacity:1;fill-rule:nonzero;stroke:none"
               d="m 0,0 c -13.945,-2.605 -28.572,-3.133 -41.57,-9.369 -29.13,-13.526 -49.884,-44.594 -49.342,-76.966 0.032,-72.918 0.032,-145.837 0,-218.755 0.063,-16.737 -3.598,-33.396 -10.625,-48.581 24.26,4.405 48.38,9.741 72.795,13.261 -7.197,13.247 -10.641,28.231 -10.718,43.261 -0.078,20.661 -0.125,41.322 0.046,61.968 19.249,3.118 38.468,6.453 57.795,8.997 -0.062,-20.584 0.046,-41.183 -0.047,-61.781 -0.155,-16.071 -3.753,-32.109 -10.935,-46.519 24.492,3.676 49.062,6.887 73.694,9.555 -7.772,13.541 -10.889,29.254 -10.936,44.765 -0.062,73.912 0.016,147.838 -0.046,221.749 0.093,19.234 -9.152,38.607 -25.253,49.465 C 31.953,0.078 15.372,2.792 0,0 M -29.44,4.607 C -10.331,7.57 9.245,13.495 28.603,9.043 46.487,5.072 62.215,-6.98 71.01,-23.019 c 4.25,-6.918 5.46,-15.061 8.547,-22.444 0.729,-11.51 0.388,-23.035 0.45,-34.544 0.031,-66.682 -0.047,-133.35 0.031,-200.033 -0.341,-18.845 6.359,-37.165 16.597,-52.769 -5.755,-0.636 -11.494,-1.318 -17.233,-1.954 -2.792,-0.295 -5.569,-0.574 -8.345,-0.9 -26.447,-3.025 -52.831,-6.654 -79.139,-10.795 9.432,17 16.179,35.831 16.799,55.406 0.404,17.946 -0.077,35.908 0.248,53.839 -12.843,-1.598 -25.624,-3.785 -38.39,-5.956 0.078,-18.552 -0.062,-37.087 0.047,-55.639 0.062,-17.373 6.607,-34.109 16.224,-48.38 -5.429,-0.946 -10.857,-1.877 -16.286,-2.776 -2.839,-0.45 -5.662,-0.931 -8.485,-1.427 -26.431,-4.561 -52.769,-9.757 -78.999,-15.372 5.553,11.571 11.075,23.298 13.728,35.939 3.769,15.077 2.652,30.713 2.792,46.084 0.015,65.659 -0.016,131.319 0.015,196.978 -0.248,38.933 26.199,76.129 62.479,89.779 2.762,1.039 5.584,1.907 8.47,2.59" />
          </g>
          <g
             transform="translate(147.9146,565.5356)"
             id="g76">
            <path
               inkscape:connector-curvature="0"
               id="path78"
               style="fill:#fec324;fill-opacity:1;fill-rule:nonzero;stroke:none"
               d="m 0,0 c -32.775,-8.608 -65.318,-18.102 -97.612,-28.37 8.299,-13.355 10.703,-29.332 10.641,-44.812 0.015,-84.319 0.031,-168.638 -0.016,-252.973 0.14,-17.403 -3.692,-34.637 -10.532,-50.613 23.732,7.663 47.635,14.752 71.662,21.406 -7.833,12.983 -10.61,28.292 -10.687,43.277 -0.094,24.321 0.062,48.642 -0.078,72.964 14.193,4.638 28.897,7.538 43.044,12.285 34.28,13.076 60.416,48.053 59.501,85.281 -0.047,29.998 0.015,59.982 -0.031,89.98 0.201,18.846 -9.167,38.36 -26.199,47.356 C 27.687,2.42 13.154,3.335 0,0 m 1.164,9.881 c 17.108,4.219 36.203,1.551 50.52,-9.043 2.776,-2.047 5.366,-4.343 7.771,-6.825 10.64,-12.006 16.038,-28.06 15.93,-44.021 0.015,-31.503 0.139,-63.022 -0.062,-94.541 -0.124,-17.807 -7.26,-34.451 -15.791,-49.729 -2.931,-3.134 -5.258,-6.747 -7.926,-10.082 -9.105,-10.502 -19.793,-19.73 -32.093,-26.276 -14.503,-8.004 -31.069,-10.594 -46.751,-15.31 0.031,-21.56 -0.124,-43.121 0.078,-64.681 0.171,-17.947 5.941,-35.723 16.613,-50.195 -13.092,-3.49 -26.153,-7.089 -39.136,-10.951 -2.59,-0.744 -5.18,-1.489 -7.755,-2.249 -18.551,-5.429 -36.979,-11.323 -55.391,-17.218 9.757,19.188 16.504,40.314 16.536,61.999 0.03,84.816 0.03,169.615 0,254.415 0.092,18.226 -5.306,36.638 -16.551,51.125 18.396,5.956 36.839,11.758 55.375,17.28 2.591,0.775 5.196,1.535 7.802,2.28 16.907,4.839 33.814,9.648 50.831,14.022" />
          </g>
          <g
             transform="translate(1098.6602,557.7959)"
             id="g80">
            <path
               inkscape:connector-curvature="0"
               id="path82"
               style="fill:#fec324;fill-opacity:1;fill-rule:nonzero;stroke:none"
               d="m 0,0 c -10.021,-7.663 -15.015,-20.428 -15.077,-32.822 -0.155,-32.651 -0.016,-65.302 -0.077,-97.953 -0.745,-25.765 18.644,-50.195 43.508,-56.322 17.063,-4.545 34.14,-9.074 51.079,-14.068 4.312,-1.241 7.321,-5.615 7.181,-10.083 0.094,-28.463 0.016,-56.941 0.032,-85.404 0.232,-4.654 -1.567,-9.819 -6.003,-11.944 -5.941,-2.807 -12.254,0.605 -18.118,1.939 -7.646,2.636 -16.674,3.024 -22.723,8.981 -4.468,4.266 -7.089,10.393 -6.717,16.581 0.295,12.083 0.59,25.159 7.632,35.536 -17.59,4.514 -35.117,9.23 -52.847,13.169 0,-13.649 0.016,-27.284 -0.016,-40.933 -1.349,-31.783 22.399,-62.045 52.925,-69.909 13.96,-3.786 27.92,-7.617 41.803,-11.696 8.516,-2.591 17.651,-4.111 26.462,-2.079 10.066,2.001 18.985,8.842 23.483,18.07 4.577,8.703 4.592,18.77 4.437,28.34 -0.016,29.471 -0.031,58.927 0.015,88.399 0.807,27.02 -18.923,53.358 -45.168,60.012 -15.946,4.685 -31.954,9.152 -47.976,13.542 -4.731,1.039 -8.33,5.46 -8.02,10.361 -0.155,28.37 0,56.756 -0.078,85.141 -0.248,4.933 1.056,10.657 5.833,13.077 5.677,3.148 11.991,-0.094 17.714,-1.459 6.7,-2.249 14.037,-3.009 20.18,-6.716 6.127,-4.157 10.113,-11.401 9.849,-18.862 -0.186,-12.191 -0.589,-25.283 -7.445,-35.862 17.435,-5.149 34.761,-10.625 52.164,-15.868 0.047,13.635 0,27.285 0.031,40.935 0.605,25.64 -14.115,50.334 -35.427,64.061 C 89.174,-7.508 77.851,-5.29 67.117,-2.125 56.569,0.853 46.006,3.785 35.396,6.53 23.422,9.462 9.834,7.849 0,0 M -16.24,-1.985 C -6.034,14.068 14.767,20.971 32.931,16.659 50.442,12.362 67.784,7.321 85.095,2.295 c 2.869,-0.915 5.692,-2.016 8.422,-3.35 27.222,-13.603 47.03,-41.849 49.574,-72.282 0.434,-19.358 0.078,-38.732 0.155,-58.105 -16.566,5.134 -33.039,10.501 -49.683,15.371 -2.823,0.838 -5.645,1.66 -8.453,2.482 -5.957,1.768 -11.928,3.49 -17.916,5.057 10.517,13.324 14.55,30.867 12.347,47.557 -1.07,5.072 -6.84,6.08 -11.013,7.322 -6.67,1.488 -13.076,4.312 -19.916,4.901 -3.661,-0.372 -3.319,-4.731 -3.474,-7.415 0.139,-27.78 -0.171,-55.576 0.171,-83.356 13.338,-3.522 26.601,-7.275 39.847,-11.138 2.777,-0.806 5.569,-1.582 8.361,-2.42 31.255,-9.151 54.087,-41.274 52.692,-73.771 -0.094,-32.077 0.016,-64.139 -0.047,-96.216 -0.016,-13.604 -5.336,-27.765 -16.349,-36.203 -10.128,-8.004 -23.779,-10.036 -36.25,-7.958 -2.853,0.481 -5.645,1.21 -8.407,1.924 -15.231,4.576 -30.588,8.701 -45.913,12.906 -24.972,6.886 -45.293,26.554 -55.344,50.147 -3.614,9.198 -5.63,19.048 -5.46,28.944 0.062,17.605 -0.046,35.21 0.062,52.816 1.35,-0.295 4.018,-0.884 5.367,-1.179 23.81,-5.646 47.511,-11.773 71.166,-18.101 -10.114,-13.836 -14.736,-31.52 -11.944,-48.473 1.722,-4.762 7.368,-5.336 11.571,-6.686 6.654,-1.489 13.061,-4.342 19.933,-4.73 2.853,1.488 2.714,4.901 2.792,7.662 -0.047,27.269 -0.078,54.553 0,81.821 -16.598,4.856 -33.303,9.292 -49.993,13.728 -18.629,4.902 -34.419,18.241 -43.664,34.978 -4.173,7.275 -6.531,15.418 -8.16,23.593 -0.34,37.94 -0.34,75.88 -0.015,113.805 1.536,7.725 3.738,15.511 8.206,22.089" />
          </g>
          <g
             transform="translate(542.1792,561.5649)"
             id="g84">
            <path
               inkscape:connector-curvature="0"
               id="path86"
               style="fill:#fec324;fill-opacity:1;fill-rule:nonzero;stroke:none"
               d="m 0,0 c -0.636,-11.168 -0.14,-22.367 -0.279,-33.551 0.015,-65.783 -0.047,-131.566 0.015,-197.349 8.143,0.868 16.784,-0.558 24.555,2.373 5.661,2.668 9.306,8.842 8.965,15.093 -0.016,66.17 -0.016,132.341 0,198.512 0.527,6.996 -4.374,14.053 -11.37,15.325 C 14.611,1.21 7.29,-0.031 0,0 m -9.912,8.857 c 9.462,0.698 18.955,1.117 28.448,1.458 9.741,0.465 19.218,-5.863 22.662,-14.937 2.326,-5.755 1.551,-12.037 1.659,-18.071 -0.031,-63.642 0,-127.269 0,-190.896 0.497,-12.689 -9.958,-24.601 -22.568,-25.842 -10.036,-0.807 -20.119,-1.102 -30.17,-1.521 -0.031,83.265 0.031,166.545 -0.031,249.809" />
          </g>
          <g
             transform="translate(754.7764,560.4946)"
             id="g88">
            <path
               inkscape:connector-curvature="0"
               id="path90"
               style="fill:#fec324;fill-opacity:1;fill-rule:nonzero;stroke:none"
               d="m 0,0 c 0.077,-37.103 0,-74.221 0.046,-111.339 6.67,-0.326 13.34,-1.164 20.025,-1.102 7.57,0.046 13.712,7.259 13.169,14.705 0.031,26.369 0,52.738 0.016,79.091 0.356,6.702 -3.522,13.387 -9.679,16.117 C 16.054,0.14 7.833,-0.884 0,0 M -9.85,10.145 C -0.373,9.617 9.104,9.136 18.566,8.407 31.969,7.399 43.09,-5.087 42.826,-18.474 c 0.031,-26.927 0.077,-53.87 -0.015,-80.798 0.108,-8.655 -5.041,-17.14 -12.983,-20.707 -5.444,-2.761 -11.711,-2.172 -17.59,-1.8 -7.415,0.59 -14.86,0.698 -22.243,1.66 0.295,43.416 -0.016,86.848 0.155,130.264" />
          </g>
          <g
             transform="translate(317.623,523.4229)"
             id="g92">
            <path
               inkscape:connector-curvature="0"
               id="path94"
               style="fill:#fec324;fill-opacity:1;fill-rule:nonzero;stroke:none"
               d="m 0,0 c -0.14,-36.886 0.046,-73.771 -0.093,-110.657 12.766,1.706 25.392,4.235 38.173,5.801 0.357,35.443 0.016,70.886 0.17,106.33 0.202,4.917 -0.682,10.532 -5.009,13.541 -5.197,4.157 -12.177,2.094 -18.087,1.148 C 7.29,15.046 -0.078,8.252 0,0 m 12.766,25.252 c 4.886,1.009 9.849,1.939 14.859,2.001 7.756,-0.015 15.217,-4.994 18.226,-12.161 1.985,-4.265 1.877,-9.089 1.908,-13.696 -0.155,-38.142 0.139,-76.3 -0.139,-114.442 -19.328,-2.528 -38.499,-6.034 -57.78,-8.919 0.015,39.073 0,78.13 0,117.188 -0.543,13.712 9.555,26.989 22.926,30.029" />
          </g>
          <g
             transform="translate(120.646,505.771)"
             id="g96">
            <path
               inkscape:connector-curvature="0"
               id="path98"
               style="fill:#fec324;fill-opacity:1;fill-rule:nonzero;stroke:none"
               d="m 0,0 c 0,-41.306 0.078,-82.597 -0.031,-123.904 6.127,1.241 12.161,2.886 18.133,4.716 8.779,2.404 15.061,11.323 14.689,20.366 -0.078,31.007 0.093,62.014 -0.078,93.021 C 33.008,0.295 27.579,6.049 21.359,5.444 14.068,4.421 7.12,1.799 0,0 m -9.354,6.84 c 8.516,2.715 17.203,4.871 25.796,7.306 5.646,1.738 12.13,1.908 17.264,-1.38 5.816,-3.459 8.593,-10.408 8.469,-16.97 0.062,-28.416 -0.031,-56.833 0.031,-85.234 -0.016,-5.459 0.31,-11.043 -1.226,-16.349 -3.334,-10.904 -12.191,-20.179 -23.313,-23.173 -8.996,-2.436 -17.931,-5.15 -27.021,-7.213 0.078,47.666 0.109,95.347 0,143.013" />
          </g>
        </g>
      </g>
    </g>
  </g>
</svg>
